# xmcd
#
# Track frame offsets: 
#        150
#        25013
#        55407
#        81076
#        102012
#        131941
#
# Disc length: 2063 seconds
#
# Revision: 0
# Processed by: cddbd v1.5.2PL0 Copyright (c) Steve Scherf et al.
# Submitted via: ExactAudioCopy v0.99pb3
#
DISCID=47080d06
DTITLE=Eddie James - Freedom (Bonus Disc)
DYEAR=2010
DGENRE=Gospel
TTITLE0=I Am
TTITLE1=I Need You
TTITLE2=Freedom
TTITLE3=I Am
TTITLE4=Lord You're Holy
TTITLE5=Free To Worship
EXTD=
EXTT0=
EXTT1=
EXTT2=
EXTT3=
EXTT4=
EXTT5=
PLAYORDER=
